<?xml version="1.0" encoding="UTF-8"?> <!-- Generator: Adobe Illustrator 23.1.1, SVG Export Plug-In . SVG Version: 6.00 Build 0) --> <svg xmlns="http://www.w3.org/2000/svg" xmlns:xlink="http://www.w3.org/1999/xlink" id="Layer_1" x="0px" y="0px" width="394px" height="192px" viewBox="0 0 394 192" style="enable-background:new 0 0 394 192;" xml:space="preserve"> <style type="text/css"> .st0{fill:#ffffff;} </style> <title>logo</title> <desc>Created with Sketch.</desc> <g id="Health-MOT"> <g id="_x30_7.A-user-with-inactive-gym-membership" transform="translate(-159.000000, -403.000000)"> <g id="nav-_x2F_-main-_x2F_-logged-in-_x2F_-xl" transform="translate(0.000000, 344.000000)"> <g id="nav-_x2F_-primary" transform="translate(159.000000, 59.000000)"> <g id="logo"> <path id="Fill-3" class="st0" d="M271.881,43.564c1.056,0,3.322,0.225,5.062,0.603l-1.059-8.981 c-1.962-0.378-3.775-0.528-5.737-0.528c-8.684,0-13.44,4.678-13.667,14.944H243.49v-1.284c0-3.622,1.812-4.753,5.815-4.753 c1.056,0,3.322,0.225,5.059,0.603l-1.056-8.981c-1.965-0.378-3.777-0.528-5.737-0.528c-8.686,0-13.442,4.678-13.667,14.944 h-3.475l-1.737,8.831h5.209V88.62h9.59V58.433h12.989V88.62h9.59V58.433h10.271v-8.831h-10.271v-1.284 C266.066,44.696,267.878,43.564,271.881,43.564z"></path> <path id="Fill-5" class="st0" d="M216.227,76.245c-1.284,1.885-4.606,4.375-8.684,4.375c-3.324,0-6.796-1.056-6.796-7.094 V49.602h-9.59v26.037c0,9.965,6.343,13.734,14.421,13.734c5.512,0,8.987-2.34,10.874-3.847v3.094h9.365V49.602h-9.59 C216.227,49.602,216.227,76.245,216.227,76.245z"></path> <polygon id="Fill-7" class="st0" points="280.337,88.62 289.929,88.62 289.929,49.602 280.337,49.602 "></polygon> <path id="Fill-9" class="st0" d="M304.2,69.752c-0.225-6.491,3.625-12.528,11.627-12.528c3.247,0,5.737,1.587,6.721,4.15 L304.2,69.752z M315.602,48.846c-12.611,0-21.142,8.981-21.142,20.756c0,10.718,7.021,19.927,20.842,19.927 c6.493,0,11.705-1.662,17.067-4.756l-2.944-8.303c-4.378,2.944-8.383,4.603-13.365,4.603c-3.925,0-7.021-0.906-9.287-3.397 l26.807-12.225C331.685,54.355,325.645,48.846,315.602,48.846L315.602,48.846z"></path> <path id="Fill-10" class="st0" d="M381.599,75.792c-2.493,2.566-5.815,4.753-10.496,4.753c-6.871,0-9.74-5.357-9.74-11.169 c0-6.568,3.475-11.697,10.268-11.697c4.381,0,7.855,2.34,9.968,5.131L381.599,75.792L381.599,75.792z M381.599,52.318 c-1.887-1.509-5.287-3.472-10.724-3.472c-10.949,0-19.405,7.625-19.405,20.153c0,14.113,8.609,20.375,17.895,20.375 c5.965,0,9.74-1.885,12.383-4.3v3.547h9.44V35.262l-9.59,1.209V52.318z"></path> <polygon id="Fill-11" class="st0" points="337.35,88.62 346.94,88.62 346.94,35.262 337.35,36.468 "></polygon> <path id="Fill-12" class="st0" d="M298.385,136.467v-13.81h10.043v-8.831h-10.043V102.73l-9.59,1.206v9.887h-3.472 l-1.737,8.831h5.209v15.319c0,10.415,2.718,15.472,13.895,15.472c1.359,0,3.55-0.15,5.362-0.528l1.131-9.131 c-1.662,0.528-3.925,0.753-5.134,0.753C299.594,144.542,298.385,143.336,298.385,136.467"></path> <polygon id="Fill-13" class="st0" points="271.203,152.842 280.793,152.842 280.793,99.484 271.203,100.693 "></polygon> <path id="Fill-14" class="st0" d="M333.347,113.071c-4.984,0-8.381,1.584-10.799,3.322V99.486l-9.59,1.206v52.152h9.59v-26.793 c1.587-1.962,4.684-4.228,8.383-4.228c3.397,0,7.174,0.831,7.174,6.794v24.225h9.59v-25.584 C347.696,116.542,340.293,113.071,333.347,113.071"></path> <path id="Fill-15" class="st0" d="M255.948,141.223c-0.828,0.828-4.456,3.847-9.815,3.847c-4.456,0-6.268-2.188-6.268-4.678 c0-3.244,1.887-4.981,7.172-4.981c3.777,0,7.552,1.434,8.911,2.418V141.223z M248.849,113.071 c-4.531,0-9.137,0.831-13.139,2.265l-1.887,9.056c3.247-1.509,8.609-3.094,13.44-3.094c5.662,0,8.684,1.812,8.684,6.491v1.735 c-3.172-1.66-6.721-2.263-10.268-2.263c-8.759,0-15.633,3.85-15.633,13.056c0,7.096,5.209,13.284,14.348,13.284 c6.343,0,9.968-2.491,11.705-4.225v3.469h9.44v-23.697C265.538,120.465,262.441,113.071,248.849,113.071L248.849,113.071z"></path> <polygon id="Fill-16" class="st0" points="174.922,120.918 151.74,120.918 151.74,100.012 141.925,100.012 141.925,152.842 151.74,152.842 151.74,130.352 174.922,130.352 174.922,152.842 184.74,152.842 184.74,100.012 174.922,100.012 "></polygon> <path id="Fill-17" class="st0" d="M199.238,133.977c-0.228-6.491,3.622-12.528,11.627-12.528c3.247,0,5.737,1.587,6.721,4.15 L199.238,133.977z M210.64,113.068c-12.608,0-21.142,8.981-21.142,20.756c0,10.718,7.021,19.927,20.842,19.927 c6.493,0,11.705-1.662,17.067-4.756l-2.944-8.303c-4.378,2.944-8.383,4.603-13.365,4.603c-3.928,0-7.021-0.906-9.289-3.397 l26.807-12.225C226.723,118.58,220.683,113.068,210.64,113.068L210.64,113.068z"></path> <path id="Fill-18" class="st0" d="M109.917,100.277H69.255v53.959c-0.359,0.142-0.748,0.303-1.097,0.434 c-2.952,1.086-7.083,2.397-10.013,3c-2.928-0.603-7.059-1.914-9.987-2.992c-0.357-0.134-0.751-0.3-1.123-0.445v-53.957H6.379 V78.816h40.662V35.881c0.062-0.005,0.137-0.011,0.198-0.013c4.003-0.252,7.265-0.362,10.909-0.362s6.906,0.107,10.895,0.359 c0.067,0.005,0.145,0.011,0.212,0.016v42.935h40.662V100.277z M69.255,32.64L69.255,32.64 c-4.673-0.292-8.04-0.365-11.107-0.365c-3.067,0-6.434,0.072-11.11,0.367V32.64c-10.815,0.735-28.061,2.96-43.85,9.177v0.003 v36.997v21.461v2.665v0.035c0,0.281,0.016,0.555,0.021,0.836c0.485,32.552,27.893,47.876,43.828,53.892v-0.003 c0.003,0.003,0.005,0.003,0.008,0.003c3.212,1.182,7.887,2.662,11.102,3.255c3.214-0.592,7.887-2.072,11.102-3.255 c0,0,0.003-0.003,0.005-0.003v0.003c15.938-6.016,43.343-21.34,43.828-53.892c0.005-0.282,0.024-0.552,0.024-0.836v-0.035 v-2.665V78.816V41.819v-0.003C97.319,35.599,80.22,33.374,69.255,32.64L69.255,32.64z"></path> <polygon id="Fill-1" class="st0" points="278.902,40.621 285.171,46.883 291.439,40.621 285.171,34.355 "></polygon> <polygon id="Fill-2" class="st0" points="175.753,67.114 141.925,34.28 141.925,88.62 151.665,88.62 151.665,57.68 185.496,90.208 185.496,35.79 175.753,35.79 "></polygon> </g> </g> </g> </g> </g> </svg> 